<mxfile host="app.diagrams.net" agent="Mozilla/5.0 (Windows NT 10.0; Win64; x64) AppleWebKit/537.36 (KHTML, like Gecko) Chrome/131.0.0.0 Safari/537.36" version="24.9.0">
  <diagram name="Страница — 1" id="AL9f2triFHX439vPIHJy">
    <mxGraphModel dx="1180" dy="746" grid="1" gridSize="10" guides="1" tooltips="1" connect="1" arrows="1" fold="1" page="1" pageScale="1" pageWidth="827" pageHeight="1169" math="0" shadow="0">
      <root>
        <mxCell id="0" />
        <mxCell id="1" parent="0" />
        <mxCell id="yVyBqC-tPB4_G3ObJPOv-1" value="x1" style="ellipse;whiteSpace=wrap;html=1;aspect=fixed;" vertex="1" parent="1">
          <mxGeometry x="290" y="110" width="40" height="40" as="geometry" />
        </mxCell>
        <mxCell id="yVyBqC-tPB4_G3ObJPOv-2" value="x2" style="ellipse;whiteSpace=wrap;html=1;aspect=fixed;" vertex="1" parent="1">
          <mxGeometry x="430" y="100" width="40" height="40" as="geometry" />
        </mxCell>
        <mxCell id="yVyBqC-tPB4_G3ObJPOv-3" value="x10" style="ellipse;whiteSpace=wrap;html=1;aspect=fixed;" vertex="1" parent="1">
          <mxGeometry x="660" y="230" width="40" height="40" as="geometry" />
        </mxCell>
        <mxCell id="yVyBqC-tPB4_G3ObJPOv-4" value="x4" style="ellipse;whiteSpace=wrap;html=1;aspect=fixed;" vertex="1" parent="1">
          <mxGeometry x="460" y="240" width="40" height="40" as="geometry" />
        </mxCell>
        <mxCell id="yVyBqC-tPB4_G3ObJPOv-5" value="x3" style="ellipse;whiteSpace=wrap;html=1;aspect=fixed;" vertex="1" parent="1">
          <mxGeometry x="394" y="200" width="40" height="40" as="geometry" />
        </mxCell>
        <mxCell id="yVyBqC-tPB4_G3ObJPOv-6" value="x5" style="ellipse;whiteSpace=wrap;html=1;aspect=fixed;" vertex="1" parent="1">
          <mxGeometry x="260" y="210" width="40" height="40" as="geometry" />
        </mxCell>
        <mxCell id="yVyBqC-tPB4_G3ObJPOv-7" value="x7" style="ellipse;whiteSpace=wrap;html=1;aspect=fixed;" vertex="1" parent="1">
          <mxGeometry x="220" y="320" width="40" height="40" as="geometry" />
        </mxCell>
        <mxCell id="yVyBqC-tPB4_G3ObJPOv-8" value="x6" style="ellipse;whiteSpace=wrap;html=1;aspect=fixed;" vertex="1" parent="1">
          <mxGeometry x="340" y="310" width="40" height="40" as="geometry" />
        </mxCell>
        <mxCell id="yVyBqC-tPB4_G3ObJPOv-9" value="x8" style="ellipse;whiteSpace=wrap;html=1;aspect=fixed;" vertex="1" parent="1">
          <mxGeometry x="490" y="300" width="40" height="40" as="geometry" />
        </mxCell>
        <mxCell id="yVyBqC-tPB4_G3ObJPOv-42" value="v24" style="edgeStyle=orthogonalEdgeStyle;rounded=0;orthogonalLoop=1;jettySize=auto;html=1;entryX=1;entryY=0.5;entryDx=0;entryDy=0;curved=1;" edge="1" parent="1" source="yVyBqC-tPB4_G3ObJPOv-10" target="yVyBqC-tPB4_G3ObJPOv-11">
          <mxGeometry relative="1" as="geometry">
            <Array as="points">
              <mxPoint x="740" y="330" />
              <mxPoint x="740" y="440" />
            </Array>
          </mxGeometry>
        </mxCell>
        <mxCell id="yVyBqC-tPB4_G3ObJPOv-10" value="x11" style="ellipse;whiteSpace=wrap;html=1;aspect=fixed;" vertex="1" parent="1">
          <mxGeometry x="680" y="310" width="40" height="40" as="geometry" />
        </mxCell>
        <mxCell id="yVyBqC-tPB4_G3ObJPOv-43" value="v26" style="edgeStyle=orthogonalEdgeStyle;rounded=0;orthogonalLoop=1;jettySize=auto;html=1;entryX=0.5;entryY=0;entryDx=0;entryDy=0;" edge="1" parent="1" source="yVyBqC-tPB4_G3ObJPOv-11" target="yVyBqC-tPB4_G3ObJPOv-2">
          <mxGeometry relative="1" as="geometry">
            <Array as="points">
              <mxPoint x="680" y="500" />
              <mxPoint x="800" y="500" />
              <mxPoint x="800" y="80" />
              <mxPoint x="450" y="80" />
            </Array>
          </mxGeometry>
        </mxCell>
        <mxCell id="yVyBqC-tPB4_G3ObJPOv-11" value="x12" style="ellipse;whiteSpace=wrap;html=1;aspect=fixed;" vertex="1" parent="1">
          <mxGeometry x="660" y="420" width="40" height="40" as="geometry" />
        </mxCell>
        <mxCell id="yVyBqC-tPB4_G3ObJPOv-12" value="x14" style="ellipse;whiteSpace=wrap;html=1;aspect=fixed;" vertex="1" parent="1">
          <mxGeometry x="520" y="420" width="40" height="40" as="geometry" />
        </mxCell>
        <mxCell id="yVyBqC-tPB4_G3ObJPOv-40" value="v25" style="edgeStyle=orthogonalEdgeStyle;rounded=0;orthogonalLoop=1;jettySize=auto;html=1;entryX=0;entryY=0.5;entryDx=0;entryDy=0;" edge="1" parent="1" source="yVyBqC-tPB4_G3ObJPOv-13" target="yVyBqC-tPB4_G3ObJPOv-1">
          <mxGeometry relative="1" as="geometry">
            <Array as="points">
              <mxPoint x="400" y="520" />
              <mxPoint x="190" y="520" />
              <mxPoint x="190" y="130" />
            </Array>
          </mxGeometry>
        </mxCell>
        <mxCell id="yVyBqC-tPB4_G3ObJPOv-13" value="x15" style="ellipse;whiteSpace=wrap;html=1;aspect=fixed;" vertex="1" parent="1">
          <mxGeometry x="380" y="460" width="40" height="40" as="geometry" />
        </mxCell>
        <mxCell id="yVyBqC-tPB4_G3ObJPOv-14" value="x13" style="ellipse;whiteSpace=wrap;html=1;aspect=fixed;" vertex="1" parent="1">
          <mxGeometry x="370" y="380" width="40" height="40" as="geometry" />
        </mxCell>
        <mxCell id="yVyBqC-tPB4_G3ObJPOv-15" value="x9" style="ellipse;whiteSpace=wrap;html=1;aspect=fixed;" vertex="1" parent="1">
          <mxGeometry x="280" y="400" width="40" height="40" as="geometry" />
        </mxCell>
        <mxCell id="yVyBqC-tPB4_G3ObJPOv-16" value="v1" style="endArrow=classic;html=1;rounded=0;exitX=1;exitY=0.5;exitDx=0;exitDy=0;entryX=0;entryY=0.5;entryDx=0;entryDy=0;" edge="1" parent="1" source="yVyBqC-tPB4_G3ObJPOv-1" target="yVyBqC-tPB4_G3ObJPOv-2">
          <mxGeometry width="50" height="50" relative="1" as="geometry">
            <mxPoint x="390" y="410" as="sourcePoint" />
            <mxPoint x="440" y="360" as="targetPoint" />
          </mxGeometry>
        </mxCell>
        <mxCell id="yVyBqC-tPB4_G3ObJPOv-17" value="v4" style="endArrow=classic;html=1;rounded=0;entryX=0.5;entryY=0;entryDx=0;entryDy=0;exitX=0.5;exitY=1;exitDx=0;exitDy=0;" edge="1" parent="1" source="yVyBqC-tPB4_G3ObJPOv-2" target="yVyBqC-tPB4_G3ObJPOv-5">
          <mxGeometry width="50" height="50" relative="1" as="geometry">
            <mxPoint x="390" y="410" as="sourcePoint" />
            <mxPoint x="440" y="360" as="targetPoint" />
          </mxGeometry>
        </mxCell>
        <mxCell id="yVyBqC-tPB4_G3ObJPOv-18" value="v2" style="endArrow=classic;html=1;rounded=0;exitX=1;exitY=1;exitDx=0;exitDy=0;entryX=0;entryY=0;entryDx=0;entryDy=0;" edge="1" parent="1" source="yVyBqC-tPB4_G3ObJPOv-2" target="yVyBqC-tPB4_G3ObJPOv-3">
          <mxGeometry width="50" height="50" relative="1" as="geometry">
            <mxPoint x="390" y="410" as="sourcePoint" />
            <mxPoint x="440" y="360" as="targetPoint" />
          </mxGeometry>
        </mxCell>
        <mxCell id="yVyBqC-tPB4_G3ObJPOv-19" value="v23" style="endArrow=classic;html=1;rounded=0;exitX=1;exitY=0;exitDx=0;exitDy=0;entryX=0.5;entryY=0;entryDx=0;entryDy=0;curved=1;" edge="1" parent="1" source="yVyBqC-tPB4_G3ObJPOv-2" target="yVyBqC-tPB4_G3ObJPOv-3">
          <mxGeometry width="50" height="50" relative="1" as="geometry">
            <mxPoint x="390" y="410" as="sourcePoint" />
            <mxPoint x="440" y="360" as="targetPoint" />
            <Array as="points">
              <mxPoint x="600" y="100" />
            </Array>
          </mxGeometry>
        </mxCell>
        <mxCell id="yVyBqC-tPB4_G3ObJPOv-20" value="v3" style="endArrow=classic;html=1;rounded=0;exitX=0.675;exitY=1;exitDx=0;exitDy=0;exitPerimeter=0;entryX=0.5;entryY=0;entryDx=0;entryDy=0;" edge="1" parent="1" source="yVyBqC-tPB4_G3ObJPOv-1" target="yVyBqC-tPB4_G3ObJPOv-6">
          <mxGeometry width="50" height="50" relative="1" as="geometry">
            <mxPoint x="390" y="410" as="sourcePoint" />
            <mxPoint x="440" y="360" as="targetPoint" />
          </mxGeometry>
        </mxCell>
        <mxCell id="yVyBqC-tPB4_G3ObJPOv-21" value="v6" style="endArrow=classic;html=1;rounded=0;exitX=1;exitY=1;exitDx=0;exitDy=0;entryX=0.5;entryY=0;entryDx=0;entryDy=0;" edge="1" parent="1" source="yVyBqC-tPB4_G3ObJPOv-6" target="yVyBqC-tPB4_G3ObJPOv-8">
          <mxGeometry width="50" height="50" relative="1" as="geometry">
            <mxPoint x="390" y="410" as="sourcePoint" />
            <mxPoint x="440" y="360" as="targetPoint" />
          </mxGeometry>
        </mxCell>
        <mxCell id="yVyBqC-tPB4_G3ObJPOv-22" value="v7" style="endArrow=classic;html=1;rounded=0;exitX=0.325;exitY=0.9;exitDx=0;exitDy=0;exitPerimeter=0;entryX=0.5;entryY=0;entryDx=0;entryDy=0;" edge="1" parent="1" source="yVyBqC-tPB4_G3ObJPOv-6" target="yVyBqC-tPB4_G3ObJPOv-7">
          <mxGeometry width="50" height="50" relative="1" as="geometry">
            <mxPoint x="390" y="410" as="sourcePoint" />
            <mxPoint x="440" y="360" as="targetPoint" />
          </mxGeometry>
        </mxCell>
        <mxCell id="yVyBqC-tPB4_G3ObJPOv-23" value="v9" style="endArrow=classic;html=1;rounded=0;entryX=1;entryY=0.5;entryDx=0;entryDy=0;exitX=0;exitY=0.5;exitDx=0;exitDy=0;" edge="1" parent="1" source="yVyBqC-tPB4_G3ObJPOv-8" target="yVyBqC-tPB4_G3ObJPOv-7">
          <mxGeometry width="50" height="50" relative="1" as="geometry">
            <mxPoint x="390" y="400" as="sourcePoint" />
            <mxPoint x="440" y="350" as="targetPoint" />
          </mxGeometry>
        </mxCell>
        <mxCell id="yVyBqC-tPB4_G3ObJPOv-24" value="v8" style="endArrow=classic;html=1;rounded=0;exitX=0.5;exitY=1;exitDx=0;exitDy=0;entryX=0;entryY=0;entryDx=0;entryDy=0;" edge="1" parent="1" source="yVyBqC-tPB4_G3ObJPOv-7" target="yVyBqC-tPB4_G3ObJPOv-15">
          <mxGeometry width="50" height="50" relative="1" as="geometry">
            <mxPoint x="390" y="400" as="sourcePoint" />
            <mxPoint x="440" y="350" as="targetPoint" />
          </mxGeometry>
        </mxCell>
        <mxCell id="yVyBqC-tPB4_G3ObJPOv-25" value="v10" style="endArrow=classic;html=1;rounded=0;exitX=1;exitY=1;exitDx=0;exitDy=0;entryX=0;entryY=0.5;entryDx=0;entryDy=0;" edge="1" parent="1" source="yVyBqC-tPB4_G3ObJPOv-15" target="yVyBqC-tPB4_G3ObJPOv-13">
          <mxGeometry width="50" height="50" relative="1" as="geometry">
            <mxPoint x="390" y="400" as="sourcePoint" />
            <mxPoint x="440" y="350" as="targetPoint" />
          </mxGeometry>
        </mxCell>
        <mxCell id="yVyBqC-tPB4_G3ObJPOv-26" value="v14" style="endArrow=classic;html=1;rounded=0;exitX=0;exitY=0.5;exitDx=0;exitDy=0;entryX=1;entryY=0.5;entryDx=0;entryDy=0;" edge="1" parent="1" source="yVyBqC-tPB4_G3ObJPOv-12" target="yVyBqC-tPB4_G3ObJPOv-13">
          <mxGeometry x="0.0002" width="50" height="50" relative="1" as="geometry">
            <mxPoint x="390" y="400" as="sourcePoint" />
            <mxPoint x="510" y="440" as="targetPoint" />
            <mxPoint as="offset" />
          </mxGeometry>
        </mxCell>
        <mxCell id="yVyBqC-tPB4_G3ObJPOv-27" value="v13" style="endArrow=classic;html=1;rounded=0;entryX=1;entryY=0.5;entryDx=0;entryDy=0;exitX=0;exitY=0.5;exitDx=0;exitDy=0;" edge="1" parent="1" source="yVyBqC-tPB4_G3ObJPOv-11" target="yVyBqC-tPB4_G3ObJPOv-12">
          <mxGeometry width="50" height="50" relative="1" as="geometry">
            <mxPoint x="390" y="400" as="sourcePoint" />
            <mxPoint x="440" y="350" as="targetPoint" />
          </mxGeometry>
        </mxCell>
        <mxCell id="yVyBqC-tPB4_G3ObJPOv-29" value="v17" style="endArrow=classic;html=1;rounded=0;exitX=0.95;exitY=0.7;exitDx=0;exitDy=0;exitPerimeter=0;entryX=0.5;entryY=0;entryDx=0;entryDy=0;" edge="1" parent="1" source="yVyBqC-tPB4_G3ObJPOv-8" target="yVyBqC-tPB4_G3ObJPOv-12">
          <mxGeometry width="50" height="50" relative="1" as="geometry">
            <mxPoint x="390" y="400" as="sourcePoint" />
            <mxPoint x="440" y="350" as="targetPoint" />
          </mxGeometry>
        </mxCell>
        <mxCell id="yVyBqC-tPB4_G3ObJPOv-30" value="v15" style="endArrow=classic;html=1;rounded=0;exitX=0.675;exitY=1;exitDx=0;exitDy=0;exitPerimeter=0;entryX=0.5;entryY=0;entryDx=0;entryDy=0;" edge="1" parent="1" source="yVyBqC-tPB4_G3ObJPOv-8" target="yVyBqC-tPB4_G3ObJPOv-14">
          <mxGeometry width="50" height="50" relative="1" as="geometry">
            <mxPoint x="390" y="400" as="sourcePoint" />
            <mxPoint x="440" y="350" as="targetPoint" />
          </mxGeometry>
        </mxCell>
        <mxCell id="yVyBqC-tPB4_G3ObJPOv-32" value="v16" style="endArrow=classic;html=1;rounded=0;exitX=0.5;exitY=1;exitDx=0;exitDy=0;entryX=0.5;entryY=0;entryDx=0;entryDy=0;" edge="1" parent="1" source="yVyBqC-tPB4_G3ObJPOv-14" target="yVyBqC-tPB4_G3ObJPOv-13">
          <mxGeometry width="50" height="50" relative="1" as="geometry">
            <mxPoint x="390" y="400" as="sourcePoint" />
            <mxPoint x="440" y="350" as="targetPoint" />
          </mxGeometry>
        </mxCell>
        <mxCell id="yVyBqC-tPB4_G3ObJPOv-33" value="v18" style="endArrow=classic;html=1;rounded=0;exitX=1;exitY=0.5;exitDx=0;exitDy=0;entryX=0;entryY=0.5;entryDx=0;entryDy=0;" edge="1" parent="1" source="yVyBqC-tPB4_G3ObJPOv-8" target="yVyBqC-tPB4_G3ObJPOv-9">
          <mxGeometry width="50" height="50" relative="1" as="geometry">
            <mxPoint x="390" y="400" as="sourcePoint" />
            <mxPoint x="440" y="350" as="targetPoint" />
          </mxGeometry>
        </mxCell>
        <mxCell id="yVyBqC-tPB4_G3ObJPOv-34" value="v20" style="endArrow=classic;html=1;rounded=0;entryX=1;entryY=0;entryDx=0;entryDy=0;exitX=0;exitY=1;exitDx=0;exitDy=0;" edge="1" parent="1" source="yVyBqC-tPB4_G3ObJPOv-4" target="yVyBqC-tPB4_G3ObJPOv-8">
          <mxGeometry width="50" height="50" relative="1" as="geometry">
            <mxPoint x="390" y="410" as="sourcePoint" />
            <mxPoint x="440" y="360" as="targetPoint" />
          </mxGeometry>
        </mxCell>
        <mxCell id="yVyBqC-tPB4_G3ObJPOv-35" value="v19" style="endArrow=classic;html=1;rounded=0;entryX=0;entryY=0;entryDx=0;entryDy=0;exitX=1;exitY=1;exitDx=0;exitDy=0;" edge="1" parent="1" source="yVyBqC-tPB4_G3ObJPOv-5" target="yVyBqC-tPB4_G3ObJPOv-4">
          <mxGeometry width="50" height="50" relative="1" as="geometry">
            <mxPoint x="390" y="410" as="sourcePoint" />
            <mxPoint x="440" y="360" as="targetPoint" />
          </mxGeometry>
        </mxCell>
        <mxCell id="yVyBqC-tPB4_G3ObJPOv-36" value="v5" style="endArrow=classic;html=1;rounded=0;entryX=1;entryY=0.5;entryDx=0;entryDy=0;exitX=0;exitY=0.5;exitDx=0;exitDy=0;" edge="1" parent="1" source="yVyBqC-tPB4_G3ObJPOv-5" target="yVyBqC-tPB4_G3ObJPOv-6">
          <mxGeometry x="-0.0068" width="50" height="50" relative="1" as="geometry">
            <mxPoint x="390" y="410" as="sourcePoint" />
            <mxPoint x="440" y="360" as="targetPoint" />
            <mxPoint as="offset" />
          </mxGeometry>
        </mxCell>
        <mxCell id="yVyBqC-tPB4_G3ObJPOv-37" value="v22" style="endArrow=classic;html=1;rounded=0;entryX=0;entryY=0.5;entryDx=0;entryDy=0;exitX=1;exitY=0.5;exitDx=0;exitDy=0;" edge="1" parent="1" source="yVyBqC-tPB4_G3ObJPOv-9" target="yVyBqC-tPB4_G3ObJPOv-10">
          <mxGeometry width="50" height="50" relative="1" as="geometry">
            <mxPoint x="390" y="410" as="sourcePoint" />
            <mxPoint x="440" y="360" as="targetPoint" />
          </mxGeometry>
        </mxCell>
        <mxCell id="yVyBqC-tPB4_G3ObJPOv-38" value="v21" style="endArrow=classic;html=1;rounded=0;entryX=0;entryY=1;entryDx=0;entryDy=0;exitX=1;exitY=0;exitDx=0;exitDy=0;" edge="1" parent="1" source="yVyBqC-tPB4_G3ObJPOv-9" target="yVyBqC-tPB4_G3ObJPOv-3">
          <mxGeometry width="50" height="50" relative="1" as="geometry">
            <mxPoint x="390" y="410" as="sourcePoint" />
            <mxPoint x="440" y="360" as="targetPoint" />
          </mxGeometry>
        </mxCell>
        <mxCell id="yVyBqC-tPB4_G3ObJPOv-39" value="v27" style="endArrow=classic;html=1;rounded=0;entryX=1;entryY=0.5;entryDx=0;entryDy=0;exitX=0;exitY=0.5;exitDx=0;exitDy=0;" edge="1" parent="1" source="yVyBqC-tPB4_G3ObJPOv-3" target="yVyBqC-tPB4_G3ObJPOv-4">
          <mxGeometry width="50" height="50" relative="1" as="geometry">
            <mxPoint x="390" y="410" as="sourcePoint" />
            <mxPoint x="440" y="360" as="targetPoint" />
          </mxGeometry>
        </mxCell>
        <mxCell id="yVyBqC-tPB4_G3ObJPOv-41" value="v12" style="endArrow=classic;html=1;rounded=0;exitX=0.5;exitY=1;exitDx=0;exitDy=0;entryX=0.5;entryY=0;entryDx=0;entryDy=0;" edge="1" parent="1" source="yVyBqC-tPB4_G3ObJPOv-10" target="yVyBqC-tPB4_G3ObJPOv-11">
          <mxGeometry width="50" height="50" relative="1" as="geometry">
            <mxPoint x="390" y="410" as="sourcePoint" />
            <mxPoint x="440" y="360" as="targetPoint" />
          </mxGeometry>
        </mxCell>
        <mxCell id="yVyBqC-tPB4_G3ObJPOv-44" value="v11" style="endArrow=classic;html=1;rounded=0;entryX=0.5;entryY=0;entryDx=0;entryDy=0;exitX=0.5;exitY=1;exitDx=0;exitDy=0;" edge="1" parent="1" source="yVyBqC-tPB4_G3ObJPOv-3" target="yVyBqC-tPB4_G3ObJPOv-10">
          <mxGeometry width="50" height="50" relative="1" as="geometry">
            <mxPoint x="400" y="410" as="sourcePoint" />
            <mxPoint x="450" y="360" as="targetPoint" />
          </mxGeometry>
        </mxCell>
        <mxCell id="yVyBqC-tPB4_G3ObJPOv-129" value="x1" style="ellipse;whiteSpace=wrap;html=1;aspect=fixed;" vertex="1" parent="1">
          <mxGeometry x="317" y="730" width="40" height="40" as="geometry" />
        </mxCell>
        <mxCell id="yVyBqC-tPB4_G3ObJPOv-130" value="x2" style="ellipse;whiteSpace=wrap;html=1;aspect=fixed;" vertex="1" parent="1">
          <mxGeometry x="457" y="720" width="40" height="40" as="geometry" />
        </mxCell>
        <mxCell id="yVyBqC-tPB4_G3ObJPOv-131" value="x10" style="ellipse;whiteSpace=wrap;html=1;aspect=fixed;" vertex="1" parent="1">
          <mxGeometry x="687" y="850" width="40" height="40" as="geometry" />
        </mxCell>
        <mxCell id="yVyBqC-tPB4_G3ObJPOv-132" value="x4" style="ellipse;whiteSpace=wrap;html=1;aspect=fixed;" vertex="1" parent="1">
          <mxGeometry x="487" y="860" width="40" height="40" as="geometry" />
        </mxCell>
        <mxCell id="yVyBqC-tPB4_G3ObJPOv-133" value="x3" style="ellipse;whiteSpace=wrap;html=1;aspect=fixed;" vertex="1" parent="1">
          <mxGeometry x="421" y="820" width="40" height="40" as="geometry" />
        </mxCell>
        <mxCell id="yVyBqC-tPB4_G3ObJPOv-134" value="x5" style="ellipse;whiteSpace=wrap;html=1;aspect=fixed;" vertex="1" parent="1">
          <mxGeometry x="287" y="830" width="40" height="40" as="geometry" />
        </mxCell>
        <mxCell id="yVyBqC-tPB4_G3ObJPOv-135" value="x7" style="ellipse;whiteSpace=wrap;html=1;aspect=fixed;" vertex="1" parent="1">
          <mxGeometry x="247" y="940" width="40" height="40" as="geometry" />
        </mxCell>
        <mxCell id="yVyBqC-tPB4_G3ObJPOv-136" value="x6" style="ellipse;whiteSpace=wrap;html=1;aspect=fixed;" vertex="1" parent="1">
          <mxGeometry x="367" y="930" width="40" height="40" as="geometry" />
        </mxCell>
        <mxCell id="yVyBqC-tPB4_G3ObJPOv-137" value="x8" style="ellipse;whiteSpace=wrap;html=1;aspect=fixed;" vertex="1" parent="1">
          <mxGeometry x="517" y="920" width="40" height="40" as="geometry" />
        </mxCell>
        <mxCell id="yVyBqC-tPB4_G3ObJPOv-138" value="v24" style="edgeStyle=orthogonalEdgeStyle;rounded=0;orthogonalLoop=1;jettySize=auto;html=1;entryX=1;entryY=0.5;entryDx=0;entryDy=0;curved=1;endArrow=none;endFill=0;" edge="1" parent="1" source="yVyBqC-tPB4_G3ObJPOv-139" target="yVyBqC-tPB4_G3ObJPOv-141">
          <mxGeometry relative="1" as="geometry">
            <Array as="points">
              <mxPoint x="767" y="950" />
              <mxPoint x="767" y="1060" />
            </Array>
          </mxGeometry>
        </mxCell>
        <mxCell id="yVyBqC-tPB4_G3ObJPOv-139" value="x11" style="ellipse;whiteSpace=wrap;html=1;aspect=fixed;" vertex="1" parent="1">
          <mxGeometry x="707" y="930" width="40" height="40" as="geometry" />
        </mxCell>
        <mxCell id="yVyBqC-tPB4_G3ObJPOv-140" value="v26" style="edgeStyle=orthogonalEdgeStyle;rounded=0;orthogonalLoop=1;jettySize=auto;html=1;entryX=0.5;entryY=0;entryDx=0;entryDy=0;endArrow=none;endFill=0;" edge="1" parent="1" source="yVyBqC-tPB4_G3ObJPOv-141" target="yVyBqC-tPB4_G3ObJPOv-130">
          <mxGeometry relative="1" as="geometry">
            <Array as="points">
              <mxPoint x="707" y="1120" />
              <mxPoint x="827" y="1120" />
              <mxPoint x="827" y="700" />
              <mxPoint x="477" y="700" />
            </Array>
          </mxGeometry>
        </mxCell>
        <mxCell id="yVyBqC-tPB4_G3ObJPOv-141" value="x12" style="ellipse;whiteSpace=wrap;html=1;aspect=fixed;" vertex="1" parent="1">
          <mxGeometry x="687" y="1040" width="40" height="40" as="geometry" />
        </mxCell>
        <mxCell id="yVyBqC-tPB4_G3ObJPOv-142" value="x14" style="ellipse;whiteSpace=wrap;html=1;aspect=fixed;" vertex="1" parent="1">
          <mxGeometry x="547" y="1040" width="40" height="40" as="geometry" />
        </mxCell>
        <mxCell id="yVyBqC-tPB4_G3ObJPOv-143" value="v25" style="edgeStyle=orthogonalEdgeStyle;rounded=0;orthogonalLoop=1;jettySize=auto;html=1;entryX=0;entryY=0.5;entryDx=0;entryDy=0;endArrow=none;endFill=0;" edge="1" parent="1" source="yVyBqC-tPB4_G3ObJPOv-144" target="yVyBqC-tPB4_G3ObJPOv-129">
          <mxGeometry relative="1" as="geometry">
            <Array as="points">
              <mxPoint x="427" y="1140" />
              <mxPoint x="217" y="1140" />
              <mxPoint x="217" y="750" />
            </Array>
          </mxGeometry>
        </mxCell>
        <mxCell id="yVyBqC-tPB4_G3ObJPOv-144" value="x15" style="ellipse;whiteSpace=wrap;html=1;aspect=fixed;" vertex="1" parent="1">
          <mxGeometry x="407" y="1080" width="40" height="40" as="geometry" />
        </mxCell>
        <mxCell id="yVyBqC-tPB4_G3ObJPOv-145" value="x13" style="ellipse;whiteSpace=wrap;html=1;aspect=fixed;" vertex="1" parent="1">
          <mxGeometry x="397" y="1000" width="40" height="40" as="geometry" />
        </mxCell>
        <mxCell id="yVyBqC-tPB4_G3ObJPOv-146" value="x9" style="ellipse;whiteSpace=wrap;html=1;aspect=fixed;" vertex="1" parent="1">
          <mxGeometry x="307" y="1020" width="40" height="40" as="geometry" />
        </mxCell>
        <mxCell id="yVyBqC-tPB4_G3ObJPOv-147" value="v1" style="endArrow=none;html=1;rounded=0;exitX=1;exitY=0.5;exitDx=0;exitDy=0;entryX=0;entryY=0.5;entryDx=0;entryDy=0;endFill=0;" edge="1" parent="1" source="yVyBqC-tPB4_G3ObJPOv-129" target="yVyBqC-tPB4_G3ObJPOv-130">
          <mxGeometry width="50" height="50" relative="1" as="geometry">
            <mxPoint x="417" y="1030" as="sourcePoint" />
            <mxPoint x="467" y="980" as="targetPoint" />
          </mxGeometry>
        </mxCell>
        <mxCell id="yVyBqC-tPB4_G3ObJPOv-148" value="v4" style="endArrow=none;html=1;rounded=0;entryX=0.5;entryY=0;entryDx=0;entryDy=0;exitX=0.5;exitY=1;exitDx=0;exitDy=0;endFill=0;" edge="1" parent="1" source="yVyBqC-tPB4_G3ObJPOv-130" target="yVyBqC-tPB4_G3ObJPOv-133">
          <mxGeometry width="50" height="50" relative="1" as="geometry">
            <mxPoint x="417" y="1030" as="sourcePoint" />
            <mxPoint x="467" y="980" as="targetPoint" />
          </mxGeometry>
        </mxCell>
        <mxCell id="yVyBqC-tPB4_G3ObJPOv-149" value="v2" style="endArrow=none;html=1;rounded=0;exitX=1;exitY=1;exitDx=0;exitDy=0;entryX=0;entryY=0;entryDx=0;entryDy=0;endFill=0;" edge="1" parent="1" source="yVyBqC-tPB4_G3ObJPOv-130" target="yVyBqC-tPB4_G3ObJPOv-131">
          <mxGeometry width="50" height="50" relative="1" as="geometry">
            <mxPoint x="417" y="1030" as="sourcePoint" />
            <mxPoint x="467" y="980" as="targetPoint" />
          </mxGeometry>
        </mxCell>
        <mxCell id="yVyBqC-tPB4_G3ObJPOv-150" value="v23" style="endArrow=none;html=1;rounded=0;exitX=1;exitY=0;exitDx=0;exitDy=0;entryX=0.5;entryY=0;entryDx=0;entryDy=0;curved=1;endFill=0;" edge="1" parent="1" source="yVyBqC-tPB4_G3ObJPOv-130" target="yVyBqC-tPB4_G3ObJPOv-131">
          <mxGeometry width="50" height="50" relative="1" as="geometry">
            <mxPoint x="417" y="1030" as="sourcePoint" />
            <mxPoint x="467" y="980" as="targetPoint" />
            <Array as="points">
              <mxPoint x="627" y="720" />
            </Array>
          </mxGeometry>
        </mxCell>
        <mxCell id="yVyBqC-tPB4_G3ObJPOv-151" value="v3" style="endArrow=none;html=1;rounded=0;exitX=0.675;exitY=1;exitDx=0;exitDy=0;exitPerimeter=0;entryX=0.5;entryY=0;entryDx=0;entryDy=0;endFill=0;" edge="1" parent="1" source="yVyBqC-tPB4_G3ObJPOv-129" target="yVyBqC-tPB4_G3ObJPOv-134">
          <mxGeometry width="50" height="50" relative="1" as="geometry">
            <mxPoint x="417" y="1030" as="sourcePoint" />
            <mxPoint x="467" y="980" as="targetPoint" />
          </mxGeometry>
        </mxCell>
        <mxCell id="yVyBqC-tPB4_G3ObJPOv-152" value="v6" style="endArrow=none;html=1;rounded=0;exitX=1;exitY=1;exitDx=0;exitDy=0;entryX=0.5;entryY=0;entryDx=0;entryDy=0;endFill=0;" edge="1" parent="1" source="yVyBqC-tPB4_G3ObJPOv-134" target="yVyBqC-tPB4_G3ObJPOv-136">
          <mxGeometry width="50" height="50" relative="1" as="geometry">
            <mxPoint x="417" y="1030" as="sourcePoint" />
            <mxPoint x="467" y="980" as="targetPoint" />
          </mxGeometry>
        </mxCell>
        <mxCell id="yVyBqC-tPB4_G3ObJPOv-153" value="v7" style="endArrow=none;html=1;rounded=0;exitX=0.325;exitY=0.9;exitDx=0;exitDy=0;exitPerimeter=0;entryX=0.5;entryY=0;entryDx=0;entryDy=0;endFill=0;" edge="1" parent="1" source="yVyBqC-tPB4_G3ObJPOv-134" target="yVyBqC-tPB4_G3ObJPOv-135">
          <mxGeometry width="50" height="50" relative="1" as="geometry">
            <mxPoint x="417" y="1030" as="sourcePoint" />
            <mxPoint x="467" y="980" as="targetPoint" />
          </mxGeometry>
        </mxCell>
        <mxCell id="yVyBqC-tPB4_G3ObJPOv-154" value="v9" style="endArrow=none;html=1;rounded=0;entryX=1;entryY=0.5;entryDx=0;entryDy=0;exitX=0;exitY=0.5;exitDx=0;exitDy=0;endFill=0;" edge="1" parent="1" source="yVyBqC-tPB4_G3ObJPOv-136" target="yVyBqC-tPB4_G3ObJPOv-135">
          <mxGeometry width="50" height="50" relative="1" as="geometry">
            <mxPoint x="417" y="1020" as="sourcePoint" />
            <mxPoint x="467" y="970" as="targetPoint" />
          </mxGeometry>
        </mxCell>
        <mxCell id="yVyBqC-tPB4_G3ObJPOv-155" value="v8" style="endArrow=none;html=1;rounded=0;exitX=0.5;exitY=1;exitDx=0;exitDy=0;entryX=0;entryY=0;entryDx=0;entryDy=0;endFill=0;" edge="1" parent="1" source="yVyBqC-tPB4_G3ObJPOv-135" target="yVyBqC-tPB4_G3ObJPOv-146">
          <mxGeometry width="50" height="50" relative="1" as="geometry">
            <mxPoint x="417" y="1020" as="sourcePoint" />
            <mxPoint x="467" y="970" as="targetPoint" />
          </mxGeometry>
        </mxCell>
        <mxCell id="yVyBqC-tPB4_G3ObJPOv-156" value="v10" style="endArrow=none;html=1;rounded=0;exitX=1;exitY=1;exitDx=0;exitDy=0;entryX=0;entryY=0.5;entryDx=0;entryDy=0;endFill=0;" edge="1" parent="1" source="yVyBqC-tPB4_G3ObJPOv-146" target="yVyBqC-tPB4_G3ObJPOv-144">
          <mxGeometry width="50" height="50" relative="1" as="geometry">
            <mxPoint x="417" y="1020" as="sourcePoint" />
            <mxPoint x="467" y="970" as="targetPoint" />
          </mxGeometry>
        </mxCell>
        <mxCell id="yVyBqC-tPB4_G3ObJPOv-157" value="v14" style="endArrow=none;html=1;rounded=0;exitX=0;exitY=0.5;exitDx=0;exitDy=0;entryX=1;entryY=0.5;entryDx=0;entryDy=0;endFill=0;" edge="1" parent="1" source="yVyBqC-tPB4_G3ObJPOv-142" target="yVyBqC-tPB4_G3ObJPOv-144">
          <mxGeometry x="0.0002" width="50" height="50" relative="1" as="geometry">
            <mxPoint x="417" y="1020" as="sourcePoint" />
            <mxPoint x="537" y="1060" as="targetPoint" />
            <mxPoint as="offset" />
          </mxGeometry>
        </mxCell>
        <mxCell id="yVyBqC-tPB4_G3ObJPOv-158" value="v13" style="endArrow=none;html=1;rounded=0;entryX=1;entryY=0.5;entryDx=0;entryDy=0;exitX=0;exitY=0.5;exitDx=0;exitDy=0;endFill=0;" edge="1" parent="1" source="yVyBqC-tPB4_G3ObJPOv-141" target="yVyBqC-tPB4_G3ObJPOv-142">
          <mxGeometry width="50" height="50" relative="1" as="geometry">
            <mxPoint x="417" y="1020" as="sourcePoint" />
            <mxPoint x="467" y="970" as="targetPoint" />
          </mxGeometry>
        </mxCell>
        <mxCell id="yVyBqC-tPB4_G3ObJPOv-159" value="v17" style="endArrow=none;html=1;rounded=0;exitX=0.95;exitY=0.7;exitDx=0;exitDy=0;exitPerimeter=0;entryX=0.5;entryY=0;entryDx=0;entryDy=0;endFill=0;" edge="1" parent="1" source="yVyBqC-tPB4_G3ObJPOv-136" target="yVyBqC-tPB4_G3ObJPOv-142">
          <mxGeometry width="50" height="50" relative="1" as="geometry">
            <mxPoint x="417" y="1020" as="sourcePoint" />
            <mxPoint x="467" y="970" as="targetPoint" />
          </mxGeometry>
        </mxCell>
        <mxCell id="yVyBqC-tPB4_G3ObJPOv-160" value="v15" style="endArrow=none;html=1;rounded=0;exitX=0.675;exitY=1;exitDx=0;exitDy=0;exitPerimeter=0;entryX=0.5;entryY=0;entryDx=0;entryDy=0;endFill=0;" edge="1" parent="1" source="yVyBqC-tPB4_G3ObJPOv-136" target="yVyBqC-tPB4_G3ObJPOv-145">
          <mxGeometry width="50" height="50" relative="1" as="geometry">
            <mxPoint x="417" y="1020" as="sourcePoint" />
            <mxPoint x="467" y="970" as="targetPoint" />
          </mxGeometry>
        </mxCell>
        <mxCell id="yVyBqC-tPB4_G3ObJPOv-161" value="v16" style="endArrow=none;html=1;rounded=0;exitX=0.5;exitY=1;exitDx=0;exitDy=0;entryX=0.5;entryY=0;entryDx=0;entryDy=0;endFill=0;" edge="1" parent="1" source="yVyBqC-tPB4_G3ObJPOv-145" target="yVyBqC-tPB4_G3ObJPOv-144">
          <mxGeometry width="50" height="50" relative="1" as="geometry">
            <mxPoint x="417" y="1020" as="sourcePoint" />
            <mxPoint x="467" y="970" as="targetPoint" />
          </mxGeometry>
        </mxCell>
        <mxCell id="yVyBqC-tPB4_G3ObJPOv-162" value="v18" style="endArrow=none;html=1;rounded=0;exitX=1;exitY=0.5;exitDx=0;exitDy=0;entryX=0;entryY=0.5;entryDx=0;entryDy=0;endFill=0;" edge="1" parent="1" source="yVyBqC-tPB4_G3ObJPOv-136" target="yVyBqC-tPB4_G3ObJPOv-137">
          <mxGeometry width="50" height="50" relative="1" as="geometry">
            <mxPoint x="417" y="1020" as="sourcePoint" />
            <mxPoint x="467" y="970" as="targetPoint" />
          </mxGeometry>
        </mxCell>
        <mxCell id="yVyBqC-tPB4_G3ObJPOv-163" value="v20" style="endArrow=none;html=1;rounded=0;entryX=1;entryY=0;entryDx=0;entryDy=0;exitX=0;exitY=1;exitDx=0;exitDy=0;endFill=0;" edge="1" parent="1" source="yVyBqC-tPB4_G3ObJPOv-132" target="yVyBqC-tPB4_G3ObJPOv-136">
          <mxGeometry width="50" height="50" relative="1" as="geometry">
            <mxPoint x="417" y="1030" as="sourcePoint" />
            <mxPoint x="467" y="980" as="targetPoint" />
          </mxGeometry>
        </mxCell>
        <mxCell id="yVyBqC-tPB4_G3ObJPOv-164" value="v19" style="endArrow=none;html=1;rounded=0;entryX=0;entryY=0;entryDx=0;entryDy=0;exitX=1;exitY=1;exitDx=0;exitDy=0;endFill=0;" edge="1" parent="1" source="yVyBqC-tPB4_G3ObJPOv-133" target="yVyBqC-tPB4_G3ObJPOv-132">
          <mxGeometry width="50" height="50" relative="1" as="geometry">
            <mxPoint x="417" y="1030" as="sourcePoint" />
            <mxPoint x="467" y="980" as="targetPoint" />
          </mxGeometry>
        </mxCell>
        <mxCell id="yVyBqC-tPB4_G3ObJPOv-165" value="v5" style="endArrow=none;html=1;rounded=0;entryX=1;entryY=0.5;entryDx=0;entryDy=0;exitX=0;exitY=0.5;exitDx=0;exitDy=0;endFill=0;" edge="1" parent="1" source="yVyBqC-tPB4_G3ObJPOv-133" target="yVyBqC-tPB4_G3ObJPOv-134">
          <mxGeometry x="-0.0068" width="50" height="50" relative="1" as="geometry">
            <mxPoint x="417" y="1030" as="sourcePoint" />
            <mxPoint x="467" y="980" as="targetPoint" />
            <mxPoint as="offset" />
          </mxGeometry>
        </mxCell>
        <mxCell id="yVyBqC-tPB4_G3ObJPOv-166" value="v22" style="endArrow=none;html=1;rounded=0;entryX=0;entryY=0.5;entryDx=0;entryDy=0;exitX=1;exitY=0.5;exitDx=0;exitDy=0;endFill=0;" edge="1" parent="1" source="yVyBqC-tPB4_G3ObJPOv-137" target="yVyBqC-tPB4_G3ObJPOv-139">
          <mxGeometry width="50" height="50" relative="1" as="geometry">
            <mxPoint x="417" y="1030" as="sourcePoint" />
            <mxPoint x="467" y="980" as="targetPoint" />
          </mxGeometry>
        </mxCell>
        <mxCell id="yVyBqC-tPB4_G3ObJPOv-167" value="v21" style="endArrow=none;html=1;rounded=0;entryX=0;entryY=1;entryDx=0;entryDy=0;exitX=1;exitY=0;exitDx=0;exitDy=0;endFill=0;" edge="1" parent="1" source="yVyBqC-tPB4_G3ObJPOv-137" target="yVyBqC-tPB4_G3ObJPOv-131">
          <mxGeometry width="50" height="50" relative="1" as="geometry">
            <mxPoint x="417" y="1030" as="sourcePoint" />
            <mxPoint x="467" y="980" as="targetPoint" />
          </mxGeometry>
        </mxCell>
        <mxCell id="yVyBqC-tPB4_G3ObJPOv-168" value="v27" style="endArrow=none;html=1;rounded=0;entryX=1;entryY=0.5;entryDx=0;entryDy=0;exitX=0;exitY=0.5;exitDx=0;exitDy=0;endFill=0;" edge="1" parent="1" source="yVyBqC-tPB4_G3ObJPOv-131" target="yVyBqC-tPB4_G3ObJPOv-132">
          <mxGeometry width="50" height="50" relative="1" as="geometry">
            <mxPoint x="417" y="1030" as="sourcePoint" />
            <mxPoint x="467" y="980" as="targetPoint" />
          </mxGeometry>
        </mxCell>
        <mxCell id="yVyBqC-tPB4_G3ObJPOv-169" value="v12" style="endArrow=none;html=1;rounded=0;exitX=0.5;exitY=1;exitDx=0;exitDy=0;entryX=0.5;entryY=0;entryDx=0;entryDy=0;endFill=0;" edge="1" parent="1" source="yVyBqC-tPB4_G3ObJPOv-139" target="yVyBqC-tPB4_G3ObJPOv-141">
          <mxGeometry width="50" height="50" relative="1" as="geometry">
            <mxPoint x="417" y="1030" as="sourcePoint" />
            <mxPoint x="467" y="980" as="targetPoint" />
          </mxGeometry>
        </mxCell>
        <mxCell id="yVyBqC-tPB4_G3ObJPOv-170" value="v11" style="endArrow=none;html=1;rounded=0;entryX=0.5;entryY=0;entryDx=0;entryDy=0;exitX=0.5;exitY=1;exitDx=0;exitDy=0;endFill=0;" edge="1" parent="1" source="yVyBqC-tPB4_G3ObJPOv-131" target="yVyBqC-tPB4_G3ObJPOv-139">
          <mxGeometry width="50" height="50" relative="1" as="geometry">
            <mxPoint x="427" y="1030" as="sourcePoint" />
            <mxPoint x="477" y="980" as="targetPoint" />
          </mxGeometry>
        </mxCell>
        <mxCell id="yVyBqC-tPB4_G3ObJPOv-171" value="x1" style="ellipse;whiteSpace=wrap;html=1;aspect=fixed;" vertex="1" parent="1">
          <mxGeometry x="1090" y="740" width="40" height="40" as="geometry" />
        </mxCell>
        <mxCell id="yVyBqC-tPB4_G3ObJPOv-172" value="x2" style="ellipse;whiteSpace=wrap;html=1;aspect=fixed;" vertex="1" parent="1">
          <mxGeometry x="1230" y="730" width="40" height="40" as="geometry" />
        </mxCell>
        <mxCell id="yVyBqC-tPB4_G3ObJPOv-173" value="x10" style="ellipse;whiteSpace=wrap;html=1;aspect=fixed;" vertex="1" parent="1">
          <mxGeometry x="1460" y="860" width="40" height="40" as="geometry" />
        </mxCell>
        <mxCell id="yVyBqC-tPB4_G3ObJPOv-174" value="x4" style="ellipse;whiteSpace=wrap;html=1;aspect=fixed;" vertex="1" parent="1">
          <mxGeometry x="1260" y="870" width="40" height="40" as="geometry" />
        </mxCell>
        <mxCell id="yVyBqC-tPB4_G3ObJPOv-175" value="x3" style="ellipse;whiteSpace=wrap;html=1;aspect=fixed;" vertex="1" parent="1">
          <mxGeometry x="1194" y="830" width="40" height="40" as="geometry" />
        </mxCell>
        <mxCell id="yVyBqC-tPB4_G3ObJPOv-176" value="x5" style="ellipse;whiteSpace=wrap;html=1;aspect=fixed;" vertex="1" parent="1">
          <mxGeometry x="1060" y="840" width="40" height="40" as="geometry" />
        </mxCell>
        <mxCell id="yVyBqC-tPB4_G3ObJPOv-177" value="x7" style="ellipse;whiteSpace=wrap;html=1;aspect=fixed;" vertex="1" parent="1">
          <mxGeometry x="1020" y="950" width="40" height="40" as="geometry" />
        </mxCell>
        <mxCell id="yVyBqC-tPB4_G3ObJPOv-178" value="x6" style="ellipse;whiteSpace=wrap;html=1;aspect=fixed;" vertex="1" parent="1">
          <mxGeometry x="1140" y="940" width="40" height="40" as="geometry" />
        </mxCell>
        <mxCell id="yVyBqC-tPB4_G3ObJPOv-179" value="x8" style="ellipse;whiteSpace=wrap;html=1;aspect=fixed;" vertex="1" parent="1">
          <mxGeometry x="1290" y="930" width="40" height="40" as="geometry" />
        </mxCell>
        <mxCell id="yVyBqC-tPB4_G3ObJPOv-180" value="v24" style="edgeStyle=orthogonalEdgeStyle;rounded=0;orthogonalLoop=1;jettySize=auto;html=1;entryX=1;entryY=0.5;entryDx=0;entryDy=0;curved=1;endArrow=none;endFill=0;" edge="1" parent="1" source="yVyBqC-tPB4_G3ObJPOv-181" target="yVyBqC-tPB4_G3ObJPOv-183">
          <mxGeometry relative="1" as="geometry">
            <Array as="points">
              <mxPoint x="1540" y="960" />
              <mxPoint x="1540" y="1070" />
            </Array>
          </mxGeometry>
        </mxCell>
        <mxCell id="yVyBqC-tPB4_G3ObJPOv-181" value="x11" style="ellipse;whiteSpace=wrap;html=1;aspect=fixed;" vertex="1" parent="1">
          <mxGeometry x="1480" y="940" width="40" height="40" as="geometry" />
        </mxCell>
        <mxCell id="yVyBqC-tPB4_G3ObJPOv-182" value="v26" style="edgeStyle=orthogonalEdgeStyle;rounded=0;orthogonalLoop=1;jettySize=auto;html=1;entryX=0.5;entryY=0;entryDx=0;entryDy=0;endArrow=none;endFill=0;" edge="1" parent="1" source="yVyBqC-tPB4_G3ObJPOv-183" target="yVyBqC-tPB4_G3ObJPOv-172">
          <mxGeometry relative="1" as="geometry">
            <Array as="points">
              <mxPoint x="1480" y="1130" />
              <mxPoint x="1600" y="1130" />
              <mxPoint x="1600" y="710" />
              <mxPoint x="1250" y="710" />
            </Array>
          </mxGeometry>
        </mxCell>
        <mxCell id="yVyBqC-tPB4_G3ObJPOv-183" value="x12" style="ellipse;whiteSpace=wrap;html=1;aspect=fixed;" vertex="1" parent="1">
          <mxGeometry x="1460" y="1050" width="40" height="40" as="geometry" />
        </mxCell>
        <mxCell id="yVyBqC-tPB4_G3ObJPOv-184" value="x14" style="ellipse;whiteSpace=wrap;html=1;aspect=fixed;" vertex="1" parent="1">
          <mxGeometry x="1320" y="1050" width="40" height="40" as="geometry" />
        </mxCell>
        <mxCell id="yVyBqC-tPB4_G3ObJPOv-185" value="v25" style="edgeStyle=orthogonalEdgeStyle;rounded=0;orthogonalLoop=1;jettySize=auto;html=1;entryX=0;entryY=0.5;entryDx=0;entryDy=0;endArrow=none;endFill=0;" edge="1" parent="1" source="yVyBqC-tPB4_G3ObJPOv-186" target="yVyBqC-tPB4_G3ObJPOv-171">
          <mxGeometry relative="1" as="geometry">
            <Array as="points">
              <mxPoint x="1200" y="1150" />
              <mxPoint x="990" y="1150" />
              <mxPoint x="990" y="760" />
            </Array>
          </mxGeometry>
        </mxCell>
        <mxCell id="yVyBqC-tPB4_G3ObJPOv-186" value="x15" style="ellipse;whiteSpace=wrap;html=1;aspect=fixed;" vertex="1" parent="1">
          <mxGeometry x="1180" y="1090" width="40" height="40" as="geometry" />
        </mxCell>
        <mxCell id="yVyBqC-tPB4_G3ObJPOv-187" value="x13" style="ellipse;whiteSpace=wrap;html=1;aspect=fixed;" vertex="1" parent="1">
          <mxGeometry x="1170" y="1010" width="40" height="40" as="geometry" />
        </mxCell>
        <mxCell id="yVyBqC-tPB4_G3ObJPOv-188" value="x9" style="ellipse;whiteSpace=wrap;html=1;aspect=fixed;" vertex="1" parent="1">
          <mxGeometry x="1080" y="1030" width="40" height="40" as="geometry" />
        </mxCell>
        <mxCell id="yVyBqC-tPB4_G3ObJPOv-189" value="v1" style="endArrow=none;html=1;rounded=0;exitX=1;exitY=0.5;exitDx=0;exitDy=0;entryX=0;entryY=0.5;entryDx=0;entryDy=0;endFill=0;" edge="1" parent="1" source="yVyBqC-tPB4_G3ObJPOv-171" target="yVyBqC-tPB4_G3ObJPOv-172">
          <mxGeometry width="50" height="50" relative="1" as="geometry">
            <mxPoint x="1190" y="1040" as="sourcePoint" />
            <mxPoint x="1240" y="990" as="targetPoint" />
          </mxGeometry>
        </mxCell>
        <mxCell id="yVyBqC-tPB4_G3ObJPOv-190" value="v4" style="endArrow=none;html=1;rounded=0;entryX=0.5;entryY=0;entryDx=0;entryDy=0;exitX=0.5;exitY=1;exitDx=0;exitDy=0;endFill=0;" edge="1" parent="1" source="yVyBqC-tPB4_G3ObJPOv-172" target="yVyBqC-tPB4_G3ObJPOv-175">
          <mxGeometry width="50" height="50" relative="1" as="geometry">
            <mxPoint x="1190" y="1040" as="sourcePoint" />
            <mxPoint x="1240" y="990" as="targetPoint" />
          </mxGeometry>
        </mxCell>
        <mxCell id="yVyBqC-tPB4_G3ObJPOv-191" value="v2" style="endArrow=none;html=1;rounded=0;exitX=1;exitY=1;exitDx=0;exitDy=0;entryX=0;entryY=0;entryDx=0;entryDy=0;endFill=0;" edge="1" parent="1" source="yVyBqC-tPB4_G3ObJPOv-172" target="yVyBqC-tPB4_G3ObJPOv-173">
          <mxGeometry width="50" height="50" relative="1" as="geometry">
            <mxPoint x="1190" y="1040" as="sourcePoint" />
            <mxPoint x="1240" y="990" as="targetPoint" />
          </mxGeometry>
        </mxCell>
        <mxCell id="yVyBqC-tPB4_G3ObJPOv-192" value="v23" style="endArrow=none;html=1;rounded=0;exitX=1;exitY=0;exitDx=0;exitDy=0;entryX=0.5;entryY=0;entryDx=0;entryDy=0;curved=1;endFill=0;" edge="1" parent="1" source="yVyBqC-tPB4_G3ObJPOv-172" target="yVyBqC-tPB4_G3ObJPOv-173">
          <mxGeometry width="50" height="50" relative="1" as="geometry">
            <mxPoint x="1190" y="1040" as="sourcePoint" />
            <mxPoint x="1240" y="990" as="targetPoint" />
            <Array as="points">
              <mxPoint x="1400" y="730" />
            </Array>
          </mxGeometry>
        </mxCell>
        <mxCell id="yVyBqC-tPB4_G3ObJPOv-193" value="v3" style="endArrow=none;html=1;rounded=0;exitX=0.675;exitY=1;exitDx=0;exitDy=0;exitPerimeter=0;entryX=0.5;entryY=0;entryDx=0;entryDy=0;endFill=0;" edge="1" parent="1" source="yVyBqC-tPB4_G3ObJPOv-171" target="yVyBqC-tPB4_G3ObJPOv-176">
          <mxGeometry width="50" height="50" relative="1" as="geometry">
            <mxPoint x="1190" y="1040" as="sourcePoint" />
            <mxPoint x="1240" y="990" as="targetPoint" />
          </mxGeometry>
        </mxCell>
        <mxCell id="yVyBqC-tPB4_G3ObJPOv-194" value="v6" style="endArrow=none;html=1;rounded=0;exitX=1;exitY=1;exitDx=0;exitDy=0;entryX=0.5;entryY=0;entryDx=0;entryDy=0;endFill=0;" edge="1" parent="1" source="yVyBqC-tPB4_G3ObJPOv-176" target="yVyBqC-tPB4_G3ObJPOv-178">
          <mxGeometry width="50" height="50" relative="1" as="geometry">
            <mxPoint x="1190" y="1040" as="sourcePoint" />
            <mxPoint x="1240" y="990" as="targetPoint" />
          </mxGeometry>
        </mxCell>
        <mxCell id="yVyBqC-tPB4_G3ObJPOv-195" value="v7" style="endArrow=none;html=1;rounded=0;exitX=0.325;exitY=0.9;exitDx=0;exitDy=0;exitPerimeter=0;entryX=0.5;entryY=0;entryDx=0;entryDy=0;endFill=0;" edge="1" parent="1" source="yVyBqC-tPB4_G3ObJPOv-176" target="yVyBqC-tPB4_G3ObJPOv-177">
          <mxGeometry width="50" height="50" relative="1" as="geometry">
            <mxPoint x="1190" y="1040" as="sourcePoint" />
            <mxPoint x="1240" y="990" as="targetPoint" />
          </mxGeometry>
        </mxCell>
        <mxCell id="yVyBqC-tPB4_G3ObJPOv-196" value="v9" style="endArrow=none;html=1;rounded=0;entryX=1;entryY=0.5;entryDx=0;entryDy=0;exitX=0;exitY=0.5;exitDx=0;exitDy=0;endFill=0;" edge="1" parent="1" source="yVyBqC-tPB4_G3ObJPOv-178" target="yVyBqC-tPB4_G3ObJPOv-177">
          <mxGeometry width="50" height="50" relative="1" as="geometry">
            <mxPoint x="1190" y="1030" as="sourcePoint" />
            <mxPoint x="1240" y="980" as="targetPoint" />
          </mxGeometry>
        </mxCell>
        <mxCell id="yVyBqC-tPB4_G3ObJPOv-197" value="v8" style="endArrow=none;html=1;rounded=0;exitX=0.5;exitY=1;exitDx=0;exitDy=0;entryX=0;entryY=0;entryDx=0;entryDy=0;endFill=0;" edge="1" parent="1" source="yVyBqC-tPB4_G3ObJPOv-177" target="yVyBqC-tPB4_G3ObJPOv-188">
          <mxGeometry width="50" height="50" relative="1" as="geometry">
            <mxPoint x="1190" y="1030" as="sourcePoint" />
            <mxPoint x="1240" y="980" as="targetPoint" />
          </mxGeometry>
        </mxCell>
        <mxCell id="yVyBqC-tPB4_G3ObJPOv-198" value="v10" style="endArrow=none;html=1;rounded=0;exitX=1;exitY=1;exitDx=0;exitDy=0;entryX=0;entryY=0.5;entryDx=0;entryDy=0;endFill=0;" edge="1" parent="1" source="yVyBqC-tPB4_G3ObJPOv-188" target="yVyBqC-tPB4_G3ObJPOv-186">
          <mxGeometry width="50" height="50" relative="1" as="geometry">
            <mxPoint x="1190" y="1030" as="sourcePoint" />
            <mxPoint x="1240" y="980" as="targetPoint" />
          </mxGeometry>
        </mxCell>
        <mxCell id="yVyBqC-tPB4_G3ObJPOv-199" value="v14" style="endArrow=none;html=1;rounded=0;exitX=0;exitY=0.5;exitDx=0;exitDy=0;entryX=1;entryY=0.5;entryDx=0;entryDy=0;endFill=0;" edge="1" parent="1" source="yVyBqC-tPB4_G3ObJPOv-184" target="yVyBqC-tPB4_G3ObJPOv-186">
          <mxGeometry x="0.0002" width="50" height="50" relative="1" as="geometry">
            <mxPoint x="1190" y="1030" as="sourcePoint" />
            <mxPoint x="1310" y="1070" as="targetPoint" />
            <mxPoint as="offset" />
          </mxGeometry>
        </mxCell>
        <mxCell id="yVyBqC-tPB4_G3ObJPOv-200" value="v13" style="endArrow=none;html=1;rounded=0;entryX=1;entryY=0.5;entryDx=0;entryDy=0;exitX=0;exitY=0.5;exitDx=0;exitDy=0;endFill=0;" edge="1" parent="1" source="yVyBqC-tPB4_G3ObJPOv-183" target="yVyBqC-tPB4_G3ObJPOv-184">
          <mxGeometry width="50" height="50" relative="1" as="geometry">
            <mxPoint x="1190" y="1030" as="sourcePoint" />
            <mxPoint x="1240" y="980" as="targetPoint" />
          </mxGeometry>
        </mxCell>
        <mxCell id="yVyBqC-tPB4_G3ObJPOv-201" value="v17" style="endArrow=none;html=1;rounded=0;exitX=0.95;exitY=0.7;exitDx=0;exitDy=0;exitPerimeter=0;entryX=0.5;entryY=0;entryDx=0;entryDy=0;endFill=0;" edge="1" parent="1" source="yVyBqC-tPB4_G3ObJPOv-178" target="yVyBqC-tPB4_G3ObJPOv-184">
          <mxGeometry width="50" height="50" relative="1" as="geometry">
            <mxPoint x="1190" y="1030" as="sourcePoint" />
            <mxPoint x="1240" y="980" as="targetPoint" />
          </mxGeometry>
        </mxCell>
        <mxCell id="yVyBqC-tPB4_G3ObJPOv-202" value="v15" style="endArrow=none;html=1;rounded=0;exitX=0.675;exitY=1;exitDx=0;exitDy=0;exitPerimeter=0;entryX=0.5;entryY=0;entryDx=0;entryDy=0;endFill=0;" edge="1" parent="1" source="yVyBqC-tPB4_G3ObJPOv-178" target="yVyBqC-tPB4_G3ObJPOv-187">
          <mxGeometry width="50" height="50" relative="1" as="geometry">
            <mxPoint x="1190" y="1030" as="sourcePoint" />
            <mxPoint x="1240" y="980" as="targetPoint" />
          </mxGeometry>
        </mxCell>
        <mxCell id="yVyBqC-tPB4_G3ObJPOv-203" value="v16" style="endArrow=none;html=1;rounded=0;exitX=0.5;exitY=1;exitDx=0;exitDy=0;entryX=0.5;entryY=0;entryDx=0;entryDy=0;endFill=0;" edge="1" parent="1" source="yVyBqC-tPB4_G3ObJPOv-187" target="yVyBqC-tPB4_G3ObJPOv-186">
          <mxGeometry width="50" height="50" relative="1" as="geometry">
            <mxPoint x="1190" y="1030" as="sourcePoint" />
            <mxPoint x="1240" y="980" as="targetPoint" />
          </mxGeometry>
        </mxCell>
        <mxCell id="yVyBqC-tPB4_G3ObJPOv-204" value="v18" style="endArrow=none;html=1;rounded=0;exitX=1;exitY=0.5;exitDx=0;exitDy=0;entryX=0;entryY=0.5;entryDx=0;entryDy=0;endFill=0;" edge="1" parent="1" source="yVyBqC-tPB4_G3ObJPOv-178" target="yVyBqC-tPB4_G3ObJPOv-179">
          <mxGeometry width="50" height="50" relative="1" as="geometry">
            <mxPoint x="1190" y="1030" as="sourcePoint" />
            <mxPoint x="1240" y="980" as="targetPoint" />
          </mxGeometry>
        </mxCell>
        <mxCell id="yVyBqC-tPB4_G3ObJPOv-205" value="v20" style="endArrow=none;html=1;rounded=0;entryX=1;entryY=0;entryDx=0;entryDy=0;exitX=0;exitY=1;exitDx=0;exitDy=0;endFill=0;" edge="1" parent="1" source="yVyBqC-tPB4_G3ObJPOv-174" target="yVyBqC-tPB4_G3ObJPOv-178">
          <mxGeometry width="50" height="50" relative="1" as="geometry">
            <mxPoint x="1190" y="1040" as="sourcePoint" />
            <mxPoint x="1240" y="990" as="targetPoint" />
          </mxGeometry>
        </mxCell>
        <mxCell id="yVyBqC-tPB4_G3ObJPOv-206" value="v19" style="endArrow=none;html=1;rounded=0;entryX=0;entryY=0;entryDx=0;entryDy=0;exitX=1;exitY=1;exitDx=0;exitDy=0;endFill=0;" edge="1" parent="1" source="yVyBqC-tPB4_G3ObJPOv-175" target="yVyBqC-tPB4_G3ObJPOv-174">
          <mxGeometry width="50" height="50" relative="1" as="geometry">
            <mxPoint x="1190" y="1040" as="sourcePoint" />
            <mxPoint x="1240" y="990" as="targetPoint" />
          </mxGeometry>
        </mxCell>
        <mxCell id="yVyBqC-tPB4_G3ObJPOv-207" value="v5" style="endArrow=none;html=1;rounded=0;entryX=1;entryY=0.5;entryDx=0;entryDy=0;exitX=0;exitY=0.5;exitDx=0;exitDy=0;endFill=0;" edge="1" parent="1" source="yVyBqC-tPB4_G3ObJPOv-175" target="yVyBqC-tPB4_G3ObJPOv-176">
          <mxGeometry x="-0.0068" width="50" height="50" relative="1" as="geometry">
            <mxPoint x="1190" y="1040" as="sourcePoint" />
            <mxPoint x="1240" y="990" as="targetPoint" />
            <mxPoint as="offset" />
          </mxGeometry>
        </mxCell>
        <mxCell id="yVyBqC-tPB4_G3ObJPOv-208" value="v22" style="endArrow=none;html=1;rounded=0;entryX=0;entryY=0.5;entryDx=0;entryDy=0;exitX=1;exitY=0.5;exitDx=0;exitDy=0;endFill=0;" edge="1" parent="1" source="yVyBqC-tPB4_G3ObJPOv-179" target="yVyBqC-tPB4_G3ObJPOv-181">
          <mxGeometry width="50" height="50" relative="1" as="geometry">
            <mxPoint x="1190" y="1040" as="sourcePoint" />
            <mxPoint x="1240" y="990" as="targetPoint" />
          </mxGeometry>
        </mxCell>
        <mxCell id="yVyBqC-tPB4_G3ObJPOv-209" value="v21" style="endArrow=none;html=1;rounded=0;entryX=0;entryY=1;entryDx=0;entryDy=0;exitX=1;exitY=0;exitDx=0;exitDy=0;endFill=0;" edge="1" parent="1" source="yVyBqC-tPB4_G3ObJPOv-179" target="yVyBqC-tPB4_G3ObJPOv-173">
          <mxGeometry width="50" height="50" relative="1" as="geometry">
            <mxPoint x="1190" y="1040" as="sourcePoint" />
            <mxPoint x="1240" y="990" as="targetPoint" />
          </mxGeometry>
        </mxCell>
        <mxCell id="yVyBqC-tPB4_G3ObJPOv-210" value="v27" style="endArrow=none;html=1;rounded=0;entryX=1;entryY=0.5;entryDx=0;entryDy=0;exitX=0;exitY=0.5;exitDx=0;exitDy=0;endFill=0;" edge="1" parent="1" source="yVyBqC-tPB4_G3ObJPOv-173" target="yVyBqC-tPB4_G3ObJPOv-174">
          <mxGeometry width="50" height="50" relative="1" as="geometry">
            <mxPoint x="1190" y="1040" as="sourcePoint" />
            <mxPoint x="1240" y="990" as="targetPoint" />
          </mxGeometry>
        </mxCell>
        <mxCell id="yVyBqC-tPB4_G3ObJPOv-211" value="v12" style="endArrow=none;html=1;rounded=0;exitX=0.5;exitY=1;exitDx=0;exitDy=0;entryX=0.5;entryY=0;entryDx=0;entryDy=0;endFill=0;" edge="1" parent="1" source="yVyBqC-tPB4_G3ObJPOv-181" target="yVyBqC-tPB4_G3ObJPOv-183">
          <mxGeometry width="50" height="50" relative="1" as="geometry">
            <mxPoint x="1190" y="1040" as="sourcePoint" />
            <mxPoint x="1240" y="990" as="targetPoint" />
          </mxGeometry>
        </mxCell>
        <mxCell id="yVyBqC-tPB4_G3ObJPOv-212" value="v11" style="endArrow=none;html=1;rounded=0;entryX=0.5;entryY=0;entryDx=0;entryDy=0;exitX=0.5;exitY=1;exitDx=0;exitDy=0;endFill=0;" edge="1" parent="1" source="yVyBqC-tPB4_G3ObJPOv-173" target="yVyBqC-tPB4_G3ObJPOv-181">
          <mxGeometry width="50" height="50" relative="1" as="geometry">
            <mxPoint x="1200" y="1040" as="sourcePoint" />
            <mxPoint x="1250" y="990" as="targetPoint" />
          </mxGeometry>
        </mxCell>
        <mxCell id="yVyBqC-tPB4_G3ObJPOv-213" value="1" style="text;html=1;align=center;verticalAlign=middle;whiteSpace=wrap;rounded=0;fontStyle=1" vertex="1" parent="1">
          <mxGeometry x="1150" y="720" width="60" height="30" as="geometry" />
        </mxCell>
        <mxCell id="yVyBqC-tPB4_G3ObJPOv-214" value="1" style="text;html=1;align=center;verticalAlign=middle;whiteSpace=wrap;rounded=0;fontStyle=1" vertex="1" parent="1">
          <mxGeometry x="1310" y="800" width="60" height="30" as="geometry" />
        </mxCell>
        <mxCell id="yVyBqC-tPB4_G3ObJPOv-215" value="1" style="text;html=1;align=center;verticalAlign=middle;whiteSpace=wrap;rounded=0;fontStyle=1" vertex="1" parent="1">
          <mxGeometry x="1340" y="730" width="60" height="30" as="geometry" />
        </mxCell>
        <mxCell id="yVyBqC-tPB4_G3ObJPOv-216" value="1" style="text;html=1;align=center;verticalAlign=middle;whiteSpace=wrap;rounded=0;fontStyle=1" vertex="1" parent="1">
          <mxGeometry x="1550" y="900" width="60" height="30" as="geometry" />
        </mxCell>
        <mxCell id="yVyBqC-tPB4_G3ObJPOv-217" value="1" style="text;html=1;align=center;verticalAlign=middle;whiteSpace=wrap;rounded=0;fontStyle=1" vertex="1" parent="1">
          <mxGeometry x="1120" y="825" width="60" height="30" as="geometry" />
        </mxCell>
        <mxCell id="yVyBqC-tPB4_G3ObJPOv-218" value="1" style="text;html=1;align=center;verticalAlign=middle;whiteSpace=wrap;rounded=0;fontStyle=1" vertex="1" parent="1">
          <mxGeometry x="1194" y="780" width="60" height="30" as="geometry" />
        </mxCell>
        <mxCell id="yVyBqC-tPB4_G3ObJPOv-219" value="1" style="text;html=1;align=center;verticalAlign=middle;whiteSpace=wrap;rounded=0;fontStyle=1" vertex="1" parent="1">
          <mxGeometry x="1070" y="810" width="60" height="30" as="geometry" />
        </mxCell>
        <mxCell id="yVyBqC-tPB4_G3ObJPOv-220" value="1" style="text;html=1;align=center;verticalAlign=middle;whiteSpace=wrap;rounded=0;fontStyle=1" vertex="1" parent="1">
          <mxGeometry x="970" y="920" width="60" height="30" as="geometry" />
        </mxCell>
        <mxCell id="yVyBqC-tPB4_G3ObJPOv-221" value="1" style="text;html=1;align=center;verticalAlign=middle;whiteSpace=wrap;rounded=0;fontStyle=1" vertex="1" parent="1">
          <mxGeometry x="1110" y="890" width="60" height="30" as="geometry" />
        </mxCell>
        <mxCell id="yVyBqC-tPB4_G3ObJPOv-222" value="1" style="text;html=1;align=center;verticalAlign=middle;whiteSpace=wrap;rounded=0;fontStyle=1" vertex="1" parent="1">
          <mxGeometry x="1230" y="845" width="60" height="30" as="geometry" />
        </mxCell>
        <mxCell id="yVyBqC-tPB4_G3ObJPOv-223" value="1" style="text;html=1;align=center;verticalAlign=middle;whiteSpace=wrap;rounded=0;fontStyle=1" vertex="1" parent="1">
          <mxGeometry x="1340" y="860" width="60" height="30" as="geometry" />
        </mxCell>
        <mxCell id="yVyBqC-tPB4_G3ObJPOv-224" value="1" style="text;html=1;align=center;verticalAlign=middle;whiteSpace=wrap;rounded=0;fontStyle=1" vertex="1" parent="1">
          <mxGeometry x="1330" y="900" width="60" height="30" as="geometry" />
        </mxCell>
        <mxCell id="yVyBqC-tPB4_G3ObJPOv-225" value="1" style="text;html=1;align=center;verticalAlign=middle;whiteSpace=wrap;rounded=0;fontStyle=1" vertex="1" parent="1">
          <mxGeometry x="1400" y="930" width="60" height="30" as="geometry" />
        </mxCell>
        <mxCell id="yVyBqC-tPB4_G3ObJPOv-226" value="1" style="text;html=1;align=center;verticalAlign=middle;whiteSpace=wrap;rounded=0;fontStyle=1" vertex="1" parent="1">
          <mxGeometry x="1460" y="920" width="60" height="30" as="geometry" />
        </mxCell>
        <mxCell id="yVyBqC-tPB4_G3ObJPOv-227" value="1" style="text;html=1;align=center;verticalAlign=middle;whiteSpace=wrap;rounded=0;fontStyle=1" vertex="1" parent="1">
          <mxGeometry x="1200" y="900" width="60" height="30" as="geometry" />
        </mxCell>
        <mxCell id="yVyBqC-tPB4_G3ObJPOv-228" value="1" style="text;html=1;align=center;verticalAlign=middle;whiteSpace=wrap;rounded=0;fontStyle=1" vertex="1" parent="1">
          <mxGeometry x="1030" y="910" width="60" height="30" as="geometry" />
        </mxCell>
        <mxCell id="yVyBqC-tPB4_G3ObJPOv-229" value="1" style="text;html=1;align=center;verticalAlign=middle;whiteSpace=wrap;rounded=0;fontStyle=1" vertex="1" parent="1">
          <mxGeometry x="1090" y="955" width="60" height="30" as="geometry" />
        </mxCell>
        <mxCell id="yVyBqC-tPB4_G3ObJPOv-230" value="1" style="text;html=1;align=center;verticalAlign=middle;whiteSpace=wrap;rounded=0;fontStyle=1" vertex="1" parent="1">
          <mxGeometry x="1050" y="1000" width="60" height="30" as="geometry" />
        </mxCell>
        <mxCell id="yVyBqC-tPB4_G3ObJPOv-231" value="1" style="text;html=1;align=center;verticalAlign=middle;whiteSpace=wrap;rounded=0;fontStyle=1" vertex="1" parent="1">
          <mxGeometry x="1110" y="1055" width="60" height="30" as="geometry" />
        </mxCell>
        <mxCell id="yVyBqC-tPB4_G3ObJPOv-232" value="1" style="text;html=1;align=center;verticalAlign=middle;whiteSpace=wrap;rounded=0;fontStyle=1" vertex="1" parent="1">
          <mxGeometry x="1170" y="1045" width="60" height="30" as="geometry" />
        </mxCell>
        <mxCell id="yVyBqC-tPB4_G3ObJPOv-233" value="1" style="text;html=1;align=center;verticalAlign=middle;whiteSpace=wrap;rounded=0;fontStyle=1" vertex="1" parent="1">
          <mxGeometry x="1140" y="990" width="60" height="30" as="geometry" />
        </mxCell>
        <mxCell id="yVyBqC-tPB4_G3ObJPOv-234" value="1" style="text;html=1;align=center;verticalAlign=middle;whiteSpace=wrap;rounded=0;fontStyle=1" vertex="1" parent="1">
          <mxGeometry x="1254" y="990" width="60" height="30" as="geometry" />
        </mxCell>
        <mxCell id="yVyBqC-tPB4_G3ObJPOv-237" value="1" style="text;html=1;align=center;verticalAlign=middle;whiteSpace=wrap;rounded=0;fontStyle=1" vertex="1" parent="1">
          <mxGeometry x="1240" y="925" width="60" height="30" as="geometry" />
        </mxCell>
        <mxCell id="yVyBqC-tPB4_G3ObJPOv-238" value="1" style="text;html=1;align=center;verticalAlign=middle;whiteSpace=wrap;rounded=0;fontStyle=1" vertex="1" parent="1">
          <mxGeometry x="1360" y="1045" width="60" height="30" as="geometry" />
        </mxCell>
        <mxCell id="yVyBqC-tPB4_G3ObJPOv-239" value="1" style="text;html=1;align=center;verticalAlign=middle;whiteSpace=wrap;rounded=0;fontStyle=1" vertex="1" parent="1">
          <mxGeometry x="1260" y="1055" width="60" height="30" as="geometry" />
        </mxCell>
        <mxCell id="yVyBqC-tPB4_G3ObJPOv-240" value="1" style="text;html=1;align=center;verticalAlign=middle;whiteSpace=wrap;rounded=0;fontStyle=1" vertex="1" parent="1">
          <mxGeometry x="1440" y="1005" width="60" height="30" as="geometry" />
        </mxCell>
        <mxCell id="yVyBqC-tPB4_G3ObJPOv-241" value="1" style="text;html=1;align=center;verticalAlign=middle;whiteSpace=wrap;rounded=0;fontStyle=1" vertex="1" parent="1">
          <mxGeometry x="1520" y="1035" width="60" height="30" as="geometry" />
        </mxCell>
      </root>
    </mxGraphModel>
  </diagram>
</mxfile>
